<?xml version="1.0" encoding="UTF-8" standalone="no"?>
<svg
   viewBox="0 0 3917.44 770.87457"
   id="svg2"
   version="1.1"
   inkscape:version="1.1.2 (b8e25be833, 2022-02-05)"
   sodipodi:docname="logo.svg"
   width="3917.4399"
   height="770.87457"
   xmlns:inkscape="http://www.inkscape.org/namespaces/inkscape"
   xmlns:sodipodi="http://sodipodi.sourceforge.net/DTD/sodipodi-0.dtd"
   xmlns="http://www.w3.org/2000/svg"
   xmlns:svg="http://www.w3.org/2000/svg"
   xmlns:rdf="http://www.w3.org/1999/02/22-rdf-syntax-ns#"
   xmlns:cc="http://creativecommons.org/ns#"
   xmlns:dc="http://purl.org/dc/elements/1.1/">
  <metadata
     id="metadata10">
    <rdf:RDF>
      <cc:Work
         rdf:about="">
        <dc:format>image/svg+xml</dc:format>
        <dc:type
           rdf:resource="http://purl.org/dc/dcmitype/StillImage" />
      </cc:Work>
    </rdf:RDF>
  </metadata>
  <defs
     id="defs8"><rect
   x="432.60553"
   y="-408.06055"
   width="343.61465"
   height="272.36871"
   id="rect4646" />
<marker
   inkscape:isstock="true"
   style="overflow:visible"
   id="marker8454"
   refX="0"
   refY="0"
   orient="auto"
   inkscape:stockid="Arrow1Mend">
  <path
     inkscape:connector-curvature="0"
     transform="matrix(-0.4,0,0,-0.4,-4,0)"
     style="fill:#1b1e2e;fill-opacity:1;fill-rule:evenodd;stroke:#1b1e2e;stroke-width:1pt;stroke-opacity:1"
     d="M 0,0 5,-5 -12.5,0 5,5 Z"
     id="path8456" />
</marker>
<marker
   inkscape:isstock="true"
   style="overflow:visible"
   id="marker7644"
   refX="0"
   refY="0"
   orient="auto"
   inkscape:stockid="Arrow1Mend">
  <path
     inkscape:connector-curvature="0"
     transform="matrix(-0.4,0,0,-0.4,-4,0)"
     style="fill:#1b1e2e;fill-opacity:1;fill-rule:evenodd;stroke:#1b1e2e;stroke-width:1pt;stroke-opacity:1"
     d="M 0,0 5,-5 -12.5,0 5,5 Z"
     id="path7646" />
</marker>
<clipPath
   id="clip0_2_31">
  <rect
     width="256"
     height="192"
     fill="#ffffff"
     id="rect883"
     x="0"
     y="0" />
</clipPath>

	
	
</defs>
  <sodipodi:namedview
     pagecolor="#ffffff"
     bordercolor="#666666"
     borderopacity="1"
     objecttolerance="10"
     gridtolerance="10"
     guidetolerance="10"
     inkscape:pageopacity="0"
     inkscape:pageshadow="2"
     inkscape:window-width="3440"
     inkscape:window-height="1377"
     id="namedview6"
     showgrid="false"
     showguides="true"
     inkscape:guide-bbox="true"
     inkscape:zoom="0.32593203"
     inkscape:cx="1845.4768"
     inkscape:cy="230.10933"
     inkscape:window-x="1912"
     inkscape:window-y="-8"
     inkscape:window-maximized="1"
     inkscape:current-layer="svg2"
     fit-margin-top="0"
     fit-margin-left="0"
     fit-margin-right="0"
     fit-margin-bottom="0"
     inkscape:pagecheckerboard="0" />
  <rect
     style="opacity:1;fill:#08290a;fill-opacity:1;fill-rule:nonzero;stroke:#ffffff;stroke-width:10.1521;stroke-linecap:butt;stroke-linejoin:miter;stroke-miterlimit:4;stroke-dasharray:none;stroke-dashoffset:0;stroke-opacity:1"
     id="rect4178"
     width="3907.2878"
     height="760.72247"
     x="5.0760498"
     y="5.0760498" />
  <g
     id="g35213"
     transform="matrix(1.4264475,0,0,1.4264475,2285.695,253.72022)">
		<path
   class="st1"
   d="M 273.5,143.7 C 240.6,168 192.8,180.9 151.7,180.9 94.1,180.9 42.2,159.6 3,124.2 c -3.1,-2.8 -0.3,-6.6 3.4,-4.4 42.4,24.6 94.7,39.5 148.8,39.5 36.5,0 76.6,-7.6 113.5,-23.2 5.5,-2.5 10.2,3.6 4.8,7.6 z"
   id="path35209" />

		<path
   class="st1"
   d="m 287.2,128.1 c -4.2,-5.4 -27.8,-2.6 -38.5,-1.3 -3.2,0.4 -3.7,-2.4 -0.8,-4.5 18.8,-13.2 49.7,-9.4 53.3,-5 3.6,4.5 -1,35.4 -18.6,50.2 -2.7,2.3 -5.3,1.1 -4.1,-1.9 4,-9.9 12.9,-32.2 8.7,-37.5 z"
   id="path35211" />

	</g>
  <path
     class="st0"
     d="m 2408.9401,348.43633 c 0,5.27786 0.5705,9.5572 1.5691,12.69539 1.1411,3.13818 2.5676,6.56166 4.5646,10.27042 0.7132,1.14116 0.9985,2.28231 0.9985,3.28083 0,1.42645 -0.8559,2.85289 -2.7102,4.27934 l -8.9867,5.99108 c -1.2838,0.85587 -2.5676,1.2838 -3.7087,1.2838 -1.4265,0 -2.8529,-0.71322 -4.2794,-1.99702 -1.997,-2.13967 -3.7087,-4.42199 -5.1352,-6.70431 -1.4264,-2.42496 -2.8529,-5.13521 -4.422,-8.41604 -11.1263,13.12332 -25.1054,19.68498 -41.9375,19.68498 -11.9822,0 -21.5394,-3.42348 -28.529,-10.27042 -6.9896,-6.84695 -10.5557,-15.97622 -10.5557,-27.3878 0,-12.1248 4.2794,-21.96729 12.9807,-29.38481 8.7013,-7.41753 20.2555,-11.12629 34.9479,-11.12629 4.85,0 9.8425,0.42793 15.1204,1.14115 5.2778,0.71323 10.6983,1.85438 16.4041,3.13819 v -10.41307 c 0,-10.841 -2.2823,-18.40117 -6.7043,-22.82316 -4.5646,-4.42199 -12.2674,-6.56166 -23.2511,-6.56166 -4.9925,0 -10.1277,0.57058 -15.4056,1.85438 -5.2779,1.28381 -10.4131,2.8529 -15.4056,4.84993 -2.2823,0.99851 -3.9941,1.56909 -4.9926,1.85438 -0.9985,0.28529 -1.7117,0.42793 -2.2823,0.42793 -1.997,0 -2.9955,-1.42645 -2.9955,-4.42198 v -6.9896 c 0,-2.28231 0.2852,-3.99405 0.9985,-4.99256 0.7132,-0.99852 1.997,-1.99703 3.994,-2.99554 4.9926,-2.56761 10.9837,-4.70728 17.9733,-6.41902 6.9895,-1.85438 14.4071,-2.71025 22.2525,-2.71025 16.9748,0 29.3849,3.85141 37.373,11.55423 7.8454,7.70281 11.8395,19.39968 11.8395,35.09061 v 46.21689 z m -57.9138,21.68201 c 4.7073,0 9.5572,-0.85587 14.6924,-2.56761 5.1352,-1.71174 9.6998,-4.84992 13.5513,-9.12926 2.2823,-2.71025 3.994,-5.70579 4.8499,-9.12927 0.8558,-3.42347 1.4264,-7.56017 1.4264,-12.41009 v -5.99108 c -4.1367,-0.99851 -8.5587,-1.85438 -13.1233,-2.42496 -4.5646,-0.57058 -8.9866,-0.85587 -13.4086,-0.85587 -9.5572,0 -16.5468,1.85438 -21.2541,5.70579 -4.7072,3.85141 -6.9896,9.27191 -6.9896,16.40415 0,6.7043 1.7118,11.69687 5.2779,15.12034 3.4235,3.56612 8.416,5.27786 14.9777,5.27786 z m 114.5437,15.40563 c -2.5676,0 -4.2793,-0.42794 -5.4205,-1.42645 -1.1411,-0.85587 -2.1396,-2.85289 -2.9955,-5.56314 l -33.5215,-110.26439 c -0.8559,-2.8529 -1.2838,-4.70728 -1.2838,-5.7058 0,-2.28231 1.1411,-3.56611 3.4234,-3.56611 h 13.9792 c 2.7103,0 4.5647,0.42793 5.5632,1.42644 1.1411,0.85587 1.997,2.8529 2.8529,5.56315 l 23.9643,94.43082 22.2526,-94.43082 c 0.7132,-2.8529 1.5691,-4.70728 2.7102,-5.56315 1.1412,-0.85586 3.1382,-1.42644 5.7058,-1.42644 h 11.4116 c 2.7102,0 4.5646,0.42793 5.7058,1.42644 1.1411,0.85587 2.1397,2.8529 2.7102,5.56315 l 22.5379,95.57198 24.6775,-95.57198 c 0.8559,-2.8529 1.8544,-4.70728 2.8529,-5.56315 1.1412,-0.85586 2.9956,-1.42644 5.5632,-1.42644 h 13.2659 c 2.2824,0 3.5662,1.14115 3.5662,3.56611 0,0.71323 -0.1427,1.42645 -0.2853,2.28232 -0.1427,0.85587 -0.428,1.99703 -0.9985,3.56612 l -34.3774,110.26439 c -0.8559,2.8529 -1.8544,4.70728 -2.9956,5.56315 -1.1411,0.85586 -2.9955,1.42644 -5.4205,1.42644 h -12.2674 c -2.7103,0 -4.5646,-0.42793 -5.7058,-1.42644 -1.1412,-0.99852 -2.1397,-2.8529 -2.7103,-5.70579 l -22.1099,-92.00587 -21.9673,91.86322 c -0.7132,2.8529 -1.5691,4.70728 -2.7102,5.70579 -1.1412,0.99851 -3.1382,1.42645 -5.7058,1.42645 z m 183.2985,3.85141 c -7.4175,0 -14.835,-0.85587 -21.9673,-2.56761 -7.1322,-1.71174 -12.6953,-3.56612 -16.4041,-5.70579 -2.2823,-1.2838 -3.8514,-2.71025 -4.422,-3.99405 -0.5706,-1.2838 -0.8559,-2.71025 -0.8559,-3.99405 v -7.27489 c 0,-2.99554 1.1412,-4.42198 3.2809,-4.42198 0.8558,0 1.7117,0.14264 2.5676,0.42793 0.8558,0.28529 2.1396,0.85587 3.5661,1.42645 4.8499,2.13967 10.1278,3.85141 15.6909,4.99256 5.7058,1.14116 11.269,1.71174 16.9747,1.71174 8.9867,0 15.9763,-1.56909 20.8262,-4.70728 4.8499,-3.13818 7.4175,-7.70281 7.4175,-13.55125 0,-3.99405 -1.2838,-7.27488 -3.8514,-9.98513 -2.5676,-2.71025 -7.4175,-5.13521 -14.4071,-7.41753 l -20.6835,-6.41901 c -10.4131,-3.28083 -18.1159,-8.13075 -22.8232,-14.54976 -4.7073,-6.27637 -7.1322,-13.26597 -7.1322,-20.68349 0,-5.99108 1.2838,-11.26894 3.8514,-15.83357 2.5676,-4.56463 5.9911,-8.55869 10.2704,-11.69687 4.2794,-3.28083 9.1293,-5.70579 14.8351,-7.41753 5.7058,-1.71173 11.6968,-2.42496 17.9732,-2.42496 3.1382,0 6.419,0.14265 9.5572,0.57058 3.2808,0.42793 6.2764,0.99851 9.2719,1.56909 2.8529,0.71323 5.5632,1.42645 8.1308,2.28232 2.5676,0.85587 4.5646,1.71174 5.991,2.5676 1.9971,1.14116 3.4235,2.28232 4.2794,3.56612 0.8559,1.14116 1.2838,2.71025 1.2838,4.70728 v 6.7043 c 0,2.99554 -1.1412,4.56464 -3.2808,4.56464 -1.1412,0 -2.9956,-0.57058 -5.4205,-1.71174 -8.1308,-3.70877 -17.2601,-5.56315 -27.3878,-5.56315 -8.1308,0 -14.5498,1.28381 -18.9718,3.99406 -4.422,2.71025 -6.7043,6.84694 -6.7043,12.69538 0,3.99405 1.4265,7.41753 4.2794,10.12778 2.8529,2.71025 8.1307,5.4205 15.6909,7.84546 l 20.2555,6.41901 c 10.2705,3.28083 17.688,7.84546 22.11,13.6939 4.422,5.84843 6.5616,12.55274 6.5616,19.97026 0,6.13373 -1.2838,11.69687 -3.7087,16.54679 -2.5676,4.84992 -5.9911,9.12927 -10.4131,12.55274 -4.422,3.56612 -9.6998,6.13373 -15.8336,7.98811 -6.419,1.99702 -13.1233,2.99554 -20.3982,2.99554 z"
     id="path35207"
     style="fill:#ffffff;fill-opacity:1;stroke-width:1.42645" />
  <!--! Font Awesome Pro 6.3.0 by @fontawesome - https://fontawesome.com License - https://fontawesome.com/license (Commercial License) Copyright 2023 Fonticons, Inc. -->
  <style
     id="style4139"
     type="text/css">
	.st0{fill:#69D3A7;}
	.st1{fill:url(#SVGID_1_);}
	.st2{fill:#1B1E2E;}
	.st3{fill:url(#SVGID_00000000930500662690563170000002800711718681554086_);}
</style>
  <style
     type="text/css"
     id="style4137">
	.st0{fill:#69D3A7;}
	.st1{fill:url(#SVGID_1_);}
	.st2{fill:#FFFFFF;}
	.st3{fill:url(#SVGID_00000170257777503591623190000012030199007927980729_);}
</style>
  <style
     type="text/css"
     id="style4196">
	.st0{fill:#69D3A7;}
	.st1{fill:url(#SVGID_1_);}
	.st2{fill:#1B1E2E;}
	.st3{fill:url(#SVGID_00000000930500662690563170000002800711718681554086_);}
</style>
  <style
     id="style4189"
     type="text/css">
	.st0{fill:#69D3A7;}
	.st1{fill:url(#SVGID_1_);}
	.st2{fill:#FFFFFF;}
	.st3{fill:url(#SVGID_00000170257777503591623190000012030199007927980729_);}
</style>
  <g
     clip-path="url(#clip0_2_31)"
     id="g879"
     transform="matrix(1.6538158,0,0,1.6538158,111.88814,226.42466)"
     style="fill:none">
    <path
       d="m 84.38,108.352 c -9.556,2.712 -15.826,7.467 -19.956,12.218 3.956,-3.461 9.255,-6.639 16.402,-8.665 7.311,-2.072 13.548,-2.057 18.702,-1.062 v -4.03 c -4.397,-0.402 -9.437,-0.082 -15.148,1.539 z m -20.393,-33.877 -35.49,9.35 c 0,0 0.646,0.914 1.844,2.133 l 30.092,-7.93 c 0,0 -0.427,5.495 -4.13,10.41 7.005,-5.299 7.684,-13.963 7.684,-13.963 z m 29.709,83.41 C 43.75,171.337 17.326,113.455 9.32599,83.413 c -3.696,-13.868 -5.31,-24.37 -5.74,-31.148 -0.04091,-0.613 -0.03255,-1.2283 0.025,-1.84 -2.59,0.155 -3.831002,1.502 -3.579002,5.395 0.43,6.773 2.044002,17.275 5.740002,31.147 7.99701,30.038 34.42401,87.92 84.37001,74.468 10.871,-2.929 19.038,-8.263 25.17,-15.073 -5.652,5.104 -12.724,9.123 -21.616,11.523 z M 103.08,39.05 v 3.555 h 19.59 c -0.401,-1.259 -0.806,-2.393 -1.208,-3.555 z"
       fill="#2d4552"
       id="path865" />
    <path
       d="m 127.05,68.325 c 8.81,2.503 13.47,8.68 15.933,14.146 l 9.824,2.79 c 0,0 -1.34,-19.132 -18.645,-24.047 -16.189,-4.6 -26.151,8.995 -27.363,10.754 4.71,-3.355 11.586,-6.102 20.251,-3.643 z m 78.197,14.234 c -16.204,-4.62 -26.162,9.003 -27.356,10.737 4.713,-3.351 11.586,-6.099 20.247,-3.629 8.797,2.506 13.452,8.676 15.923,14.146 l 9.837,2.8 c 0,0 -1.361,-19.135 -18.651,-24.054 z m -9.76,50.443 -81.718,-22.845 c 0,0 0.885,4.485 4.279,10.293 l 68.803,19.234 c 5.664,-3.277 8.636,-6.682 8.636,-6.682 z m -56.655,49.174 C 74.127,164.828 81.949,82.386 92.419,43.32 96.73,27.22 101.162,15.254 104.838,7.232 102.645,6.781 100.828,7.936 99.034,11.586 95.13,19.5 90.14,32.387 85.312,50.427 c -10.467,39.066 -18.29,121.506 46.412,138.854 30.497,8.17 54.256,-4.247 71.966,-23.749 -16.81,15.226 -38.274,23.763 -64.858,16.644 z"
       fill="#2d4552"
       id="path867" />
    <path
       d="m 103.081,138.565 v -16.637 l -46.223,13.108 c 0,0 3.415,-19.846 27.522,-26.684 7.311,-2.072 13.549,-2.058 18.701,-1.063 V 39.05 h 23.145 c -2.52,-7.787 -4.958,-13.782 -7.006,-17.948 -3.387,-6.895 -6.859,-2.324 -14.741,4.269 C 98.927,30.009 84.896,39.904 63.781,45.593 42.667,51.287 25.596,49.777 18.474,48.543 8.377,46.801 3.096,44.583 3.59,52.264 c 0.43,6.774 2.043,17.277 5.74,31.148 7.996,30.039 34.424,87.92 84.37,74.468 13.046,-3.515 22.254,-10.464 28.637,-19.32 h -19.256 v 0.004 z m -74.588,-54.74 35.494,-9.35 c 0,0 -1.034,13.654 -14.34,17.162 -13.31,3.504 -21.154,-7.812 -21.154,-7.812 z"
       fill="#e2574c"
       id="path869" />
    <path
       d="m 236.664,39.84 c -9.226,1.617 -31.361,3.632 -58.716,-3.7 -27.363,-7.328 -45.517,-20.144 -52.71,-26.16799 -10.197,-8.54 -14.682,-14.476 -19.096,-5.498 C 102.24,12.392 97.249,25.279 92.419,43.32 81.953,82.386 74.13,164.825 138.832,182.173 c 64.687,17.333 99.126,-57.978 109.593,-97.047 4.83,-18.037 6.948,-31.695 7.53,-40.502 0.665,-9.976 -6.188,-7.08 -19.291,-4.784 z M 106.668,72.161 c 0,0 10.196,-15.859 27.49,-10.943 17.305,4.915 18.645,24.046 18.645,24.046 z m 42.215,71.163 c -30.419,-8.91 -35.11,-33.167 -35.11,-33.167 l 81.714,22.846 c 0,-0.004 -16.494,19.12 -46.604,10.32 z m 28.89,-49.85 c 0,0 10.183,-15.847 27.474,-10.918 17.29,4.923 18.651,24.054 18.651,24.054 L 177.774,93.474 Z"
       fill="#2ead33"
       id="path871" />
    <path
       d="m 86.9279,126.51 -30.07,8.522 c 0,0 3.266,-18.609 25.418,-25.983 l -17.026,-63.902 -1.471,0.447 c -21.115,5.694 -38.185,4.184 -45.307,2.95 -10.09696,-1.741 -15.37896,-3.96 -14.88496,3.722 0.43,6.774 2.044,17.276 5.74,31.147 7.99696,30.039 34.42496,87.92 84.36996,74.468 l 1.471,-0.462 -8.239,-30.91 z m -58.435,-42.685 35.494,-9.351 c 0,0 -1.034,13.654 -14.34,17.162 -13.31,3.504 -21.154,-7.811 -21.154,-7.811 z"
       fill="#d65348"
       id="path873" />
    <path
       d="m 150.255,143.658 -1.376,-0.335 c -30.419,-8.91 -35.11,-33.166 -35.11,-33.166 l 42.137,11.778 22.308,-85.724 -0.27,-0.07 C 150.582,28.812 132.428,15.996 125.234,9.97099 115.038,1.43099 110.552,-4.50401 106.138,4.47399 102.24,12.392 97.249,25.279 92.419,43.32 81.953,82.386 74.13,164.825 138.832,182.172 l 1.326,0.3 z M 106.668,72.16 c 0,0 10.196,-15.859 27.49,-10.943 17.305,4.915 18.645,24.046 18.645,24.046 z"
       fill="#1d8d22"
       id="path875" />
    <path
       d="m 88.46,126.072 -8.064,2.289 c 1.906,10.74 5.264,21.047 10.534,30.152 0.918,-0.202 1.828,-0.376 2.762,-0.632 2.449,-0.66 4.72,-1.479 6.906,-2.371 -5.89,-8.74 -9.786,-18.804 -12.138,-29.438 z M 85.312,50.428 c -4.144,15.467 -7.852,37.73 -6.831,60.06 1.826,-0.793 3.756,-1.532 5.9,-2.14 l 1.492,-0.334 c -1.82,-23.852 2.114,-48.157 6.546,-64.694 1.0507,-3.9222 2.1752,-7.8242 3.373,-11.704 -1.9516,1.2481 -3.944,2.4311 -5.974,3.547 -1.6339,5.0485 -3.1364,10.1385 -4.506,15.265 z"
       fill="#c04b41"
       id="path877" />
  </g>
  <path
     d="m 621.72813,467.88177 v -157.5635 h 62.16363 c 11.95047,0 22.13136,2.28243 30.54267,6.84713 8.4113,4.51359 14.82315,10.7966 19.23387,18.8492 4.462,8.00132 6.693,17.23359 6.693,27.69678 0,10.4632 -2.25581,19.69546 -6.77072,27.69662 -4.51327,8.00083 -11.05246,14.23241 -19.61757,18.69606 -8.51384,4.46199 -18.82373,6.69299 -30.92801,6.69299 h -39.62212 v -26.69689 h 34.23565 c 6.41184,0 11.69578,-1.10276 15.85017,-3.30829 4.20565,-2.25663 7.33302,-5.35969 9.3854,-9.30916 2.10365,-4.00058 3.15383,-8.59108 3.15383,-13.77133 0,-5.23168 -1.05018,-9.79654 -3.15383,-13.69458 -2.05238,-3.94932 -5.17975,-7.0011 -9.3854,-9.1552 -4.20566,-2.20553 -9.54087,-3.30829 -16.00398,-3.30829 h -22.46378 v 130.32846 z m 165.93065,-157.5635 v 157.5635 h -32.77367 v -157.5635 z m 53.45298,159.79449 c -7.53975,0 -14.2592,-1.30816 -20.15671,-3.92285 -5.89916,-2.6676 -10.56623,-6.59211 -14.00286,-11.77186 -3.38536,-5.23102 -5.07721,-11.7454 -5.07721,-19.54149 0,-6.56564 1.20563,-12.07947 3.61524,-16.54146 2.41126,-4.462 5.69409,-8.05243 9.84847,-10.7713 4.15439,-2.71722 8.87272,-4.76961 14.15501,-6.15385 5.33521,-1.3859 10.92511,-2.36 16.773,-2.92395 6.8716,-0.71775 12.41189,-1.38424 16.61754,-1.99946 4.20565,-0.66814 7.25694,-1.64224 9.15553,-2.92395 1.89692,-1.28336 2.84621,-3.18029 2.84621,-5.69359 v -0.46158 c 0,-4.87264 -1.53805,-8.64234 -4.6158,-11.30945 -3.02648,-2.66711 -7.33467,-4.00075 -12.92457,-4.00075 -5.89916,0 -10.59269,1.308 -14.08059,3.92384 -3.48624,2.56441 -5.79497,5.7958 -6.92287,9.69385 l -30.31279,-2.46204 c 1.53805,-7.18054 4.56453,-13.38665 9.0778,-18.61833 4.51326,-5.28295 10.33469,-9.3348 17.46429,-12.15571 7.18087,-2.87235 15.48964,-4.30835 24.92797,-4.30835 6.56399,0 12.84684,0.76935 18.84854,2.3079 6.05296,1.53871 11.41132,3.92384 16.08005,7.15506 4.71833,3.23123 8.43611,7.38578 11.15498,12.46349 2.71888,5.02644 4.07831,11.05311 4.07831,18.07985 v 79.70499 h -31.08181 v -16.38766 h -0.92448 c -1.89693,3.69297 -4.43554,6.95098 -7.61583,9.77074 -3.18028,2.77014 -7.0006,4.94987 -11.46425,6.53919 -4.46199,1.5397 -9.61694,2.30872 -15.46317,2.30872 z m 9.3854,-22.61923 c 4.82253,0 9.07945,-0.94929 12.77242,-2.84622 3.69297,-1.94985 6.59046,-4.56453 8.69246,-7.84736 2.10365,-3.28282 3.15548,-7.0006 3.15548,-11.15498 v -12.54089 c -1.02702,0.66649 -2.43607,1.28171 -4.23212,1.84566 -1.74312,0.51268 -3.71778,1.00056 -5.92397,1.46197 -2.20619,0.41015 -4.41072,0.79549 -6.61691,1.15436 -2.20454,0.30761 -4.20566,0.59042 -6.00005,0.84676 -3.84677,0.56395 -7.20733,1.46197 -10.07835,2.69241 -2.87268,1.23044 -5.10368,2.89749 -6.69465,5.00114 -1.58931,2.05073 -2.3848,4.6158 -2.3848,7.69355 0,4.462 1.61578,7.87216 4.84733,10.23216 3.28283,2.30707 7.43721,3.46144 12.46316,3.46144 z m 92.09439,64.70223 c -4.15604,0 -8.05409,-0.33242 -11.69413,-0.9989 -3.59044,-0.61522 -6.56565,-1.41071 -8.92565,-2.38481 l 7.38594,-24.46655 c 3.84678,1.18083 7.30822,1.82085 10.38597,1.92339 3.12902,0.10254 5.82143,-0.61522 8.07889,-2.15327 2.30707,-1.5397 4.17919,-4.15438 5.61636,-7.84735 l 1.92338,-5.00114 -42.39226,-121.55794 h 34.46718 l 24.46655,86.78315 h 1.23044 l 24.69643,-86.78315 h 34.69705 l -45.92977,130.94334 c -2.20619,6.36058 -5.20621,11.89921 -9.00172,16.6192 -3.74424,4.7696 -8.48903,8.43611 -14.23274,11.00118 -5.74535,2.61634 -12.66823,3.92285 -20.77192,3.92285 z m 123.52025,-44.31399 -32.1585,-118.17258 h 33.159 l 18.3111,79.39721 h 1.0766 l 19.0801,-79.39721 h 32.5438 l 19.3876,78.9358 h 1.0006 l 18.0018,-78.9358 h 33.0829 l -32.0824,118.17258 h -34.6987 l -20.3105,-74.31918 h -1.4619 l -20.3106,74.31918 z m 154.468,0 V 349.70919 h 31.7748 v 20.61861 h 1.2304 c 2.1549,-7.3345 5.7702,-12.87379 10.849,-16.61803 5.0773,-3.79551 10.9252,-5.69326 17.5404,-5.69326 1.6423,0 3.4118,0.10253 5.3088,0.30777 1.8985,0.20507 3.5656,0.48721 5.0011,0.84626 v 29.08152 c -1.538,-0.46158 -3.6682,-0.87189 -6.3854,-1.23093 -2.7189,-0.35905 -5.2062,-0.53849 -7.4637,-0.53849 -4.8208,0 -9.129,1.05134 -12.9245,3.15433 -3.7443,2.05156 -6.7195,4.9239 -8.924,8.61671 -2.1549,3.69313 -3.2316,7.95006 -3.2316,12.77093 v 66.85716 z m 82.15,0 V 349.70919 h 32.7737 v 118.17258 z m 16.4637,-133.40588 c -4.8721,0 -9.0529,-1.61561 -12.5408,-4.84684 -3.435,-3.28266 -5.1533,-7.20634 -5.1533,-11.7712 0,-4.51343 1.7183,-8.38584 5.1533,-11.61723 3.4879,-3.28249 7.6687,-4.9239 12.5408,-4.9239 4.8722,0 9.0266,1.64141 12.4632,4.9239 3.4879,3.23139 5.2327,7.1038 5.2327,11.61723 0,4.56486 -1.7448,8.48854 -5.2327,11.7712 -3.4366,3.23123 -7.591,4.84684 -12.4632,4.84684 z m 89.3044,180.1824 c -10.6175,0 -19.7217,-1.46197 -27.3127,-4.38592 -7.5381,-2.87102 -13.5398,-6.79553 -18.0018,-11.7702 -4.462,-4.97468 -7.3611,-10.56623 -8.6941,-16.77135 l 30.3128,-4.07831 c 0.9228,2.36 2.3848,4.56453 4.3859,6.61692 1.9994,2.05073 4.6406,3.69297 7.9234,4.92341 3.3341,1.2817 7.386,1.92338 12.1556,1.92338 7.1296,0 13.0023,-1.74312 17.6181,-5.23101 4.667,-3.43663 7.0022,-9.2068 7.0022,-17.31049 v -21.61868 h -1.3859 c -1.4355,3.28117 -3.5904,6.38538 -6.4614,9.30767 -2.8727,2.92395 -6.5657,5.30875 -11.0789,7.15606 -4.5133,1.84566 -9.8998,2.77014 -16.1562,2.77014 -8.8744,0 -16.9516,-2.05238 -24.235,-6.1555 -7.2321,-4.15438 -13.0023,-10.4885 -17.3105,-19.00234 -4.2569,-8.56677 -6.3854,-19.38769 -6.3854,-32.46771 0,-13.38599 2.1798,-24.56777 6.5392,-33.54352 4.3595,-8.97576 10.1545,-15.69488 17.3866,-20.15704 7.2834,-4.46233 15.2597,-6.69332 23.9274,-6.69332 6.6169,0 12.1555,1.12823 16.6175,3.38503 4.462,2.20552 8.0525,4.97517 10.7713,8.3091 2.7702,3.28249 4.8986,6.51388 6.3854,9.69384 h 1.2321 v -19.84926 h 32.5421 v 119.32694 c 0,10.05189 -2.4608,18.46485 -7.3842,25.23392 -4.9251,6.77072 -11.7454,11.84794 -20.466,15.2333 -8.6677,3.43663 -18.6435,5.15494 -29.9275,5.15494 z m 0.693,-73.08873 c 5.2823,0 9.7443,-1.30817 13.386,-3.92285 3.6929,-2.66761 6.5144,-6.46312 8.4625,-11.38653 2.0012,-4.97633 3.0017,-10.9251 3.0017,-17.84963 0,-6.92453 -0.9757,-12.92457 -2.9239,-18.00261 -1.9499,-5.12915 -4.7696,-9.10409 -8.4626,-11.92501 -3.693,-2.82091 -8.1814,-4.23145 -13.4637,-4.23145 -5.3865,0 -9.9246,1.46181 -13.6175,4.38526 -3.693,2.87235 -6.488,6.87293 -8.3865,12.00191 -1.897,5.12848 -2.8462,11.05245 -2.8462,17.7719 0,6.82199 0.9492,12.7195 2.8462,17.69583 1.9498,4.92341 4.7448,8.74372 8.3865,11.4626 3.6929,2.6676 8.231,4.00058 13.6175,4.00058 z m 109.4412,-42.00692 v 68.31913 h -32.7736 v -157.5635 h 31.8508 v 60.24024 h 1.3843 c 2.6676,-6.97546 6.9758,-12.43785 12.9262,-16.38716 5.9488,-4.00058 13.4124,-6.00087 22.3877,-6.00087 8.2062,0 15.3606,1.79505 21.4649,5.38532 6.1555,3.53916 10.9251,8.64251 14.3104,15.3102 3.4367,6.61642 5.1285,14.54084 5.0772,23.77376 v 75.24201 h -32.7736 V 398.486 c 0.051,-7.28307 -1.7961,-12.9507 -5.5403,-17.00255 -3.693,-4.05201 -8.8727,-6.07794 -15.5409,-6.07794 -4.462,0 -8.4113,0.9488 -11.8479,2.84655 -3.3854,1.89776 -6.053,4.6674 -8.0012,8.3091 -1.8986,3.59027 -2.8727,7.92426 -2.924,13.00148 z M 1677.41,349.70919 v 24.61919 h -71.1653 v -24.61919 z m -55.0092,-28.31234 h 32.7737 v 110.17208 c 0,3.02483 0.4614,5.38483 1.3859,7.07668 0.9228,1.64224 2.2045,2.7966 3.8468,3.46309 1.6918,0.66649 3.6417,1.00056 5.8462,1.00056 1.5397,0 3.0778,-0.129 4.6158,-0.38534 1.5397,-0.30761 2.7189,-0.53914 3.5392,-0.69295 l 5.1549,24.38882 c -1.6406,0.51269 -3.9493,1.1031 -6.9245,1.76959 -2.9736,0.71775 -6.5905,1.15436 -10.8474,1.30816 -7.8986,0.30761 -14.8231,-0.74421 -20.7719,-3.15382 -5.8992,-2.41127 -10.4902,-6.1555 -13.7713,-11.23272 -3.2829,-5.07887 -4.8986,-11.48906 -4.8474,-19.23388 z"
     fill="#111111"
     id="path881"
     style="fill:#ffffff;fill-opacity:1;stroke-width:1.65382" />
  <g
     id="g33666"
     transform="matrix(1.2122487,0,0,1.2122487,-21.088215,377.03757)">
    <g
       id="Icon-Architecture-BG/64/Networking-Content-Delivery"
       fill="#8c4fff"
       style="fill-rule:evenodd;stroke:#ffffff;stroke-width:1.97312;stroke-miterlimit:4;stroke-dasharray:none;stroke-opacity:1"
       transform="matrix(2.5340622,0,0,2.5340622,2347.0007,-259.37089)">
      <rect
         id="Rectangle"
         x="0"
         y="0"
         width="80"
         height="80"
         style="stroke:#ffffff;stroke-width:1.97312;stroke-miterlimit:4;stroke-dasharray:none;stroke-opacity:1" />
    </g>
    <path
       d="m 2486.6833,-127.28797 c 0,-4.19133 -3.4109,-7.60218 -7.6022,-7.60218 -4.1913,0 -7.6022,3.41085 -7.6022,7.60218 0,4.19134 3.4109,7.60219 7.6022,7.60219 4.1913,0 7.6022,-3.41085 7.6022,-7.60219 z m 5.0681,0 c 0,6.98641 -5.6839,12.67032 -12.6703,12.67032 -6.9864,0 -12.6703,-5.68391 -12.6703,-12.67032 0,-6.98641 5.6839,-12.67031 12.6703,-12.67031 6.9864,0 12.6703,5.6839 12.6703,12.67031 z m -67.7355,-36.56905 c 0,-4.19134 -3.4108,-7.60218 -7.6022,-7.60218 -4.1938,0 -7.6022,3.41084 -7.6022,7.60218 0,4.19134 3.4084,7.60219 7.6022,7.60219 4.1914,0 7.6022,-3.41085 7.6022,-7.60219 z m 5.0681,0 c 0,6.98641 -5.6864,12.67031 -12.6703,12.67031 -6.9864,0 -12.6703,-5.6839 -12.6703,-12.67031 0,-6.98641 5.6839,-12.67031 12.6703,-12.67031 6.9839,0 12.6703,5.6839 12.6703,12.67031 z m 18.595,-39.74676 c 0,4.19134 3.4108,7.60218 7.6022,7.60218 4.1939,0 7.6022,-3.41084 7.6022,-7.60218 0,-4.19388 -3.4083,-7.60219 -7.6022,-7.60219 -4.1914,0 -7.6022,3.40831 -7.6022,7.60219 z m -5.0681,0 c 0,-6.98641 5.6864,-12.67031 12.6703,-12.67031 6.9864,0 12.6703,5.6839 12.6703,12.67031 0,6.98641 -5.6839,12.67031 -12.6703,12.67031 -6.9839,0 -12.6703,-5.6839 -12.6703,-12.67031 z m 71.6379,45.59538 c 0,-23.49836 -12.5994,-45.23808 -32.9124,-56.99359 -3.6414,0.73487 -7.1638,1.7409 -11.5579,3.32975 l -1.7231,-4.76657 c 2.2933,-0.8261 4.3459,-1.49509 6.3225,-2.06779 -8.1597,-3.51982 -17.0239,-5.38742 -26.0147,-5.38742 -4.28,0 -8.4917,0.44346 -12.607,1.24676 2.9801,1.74343 5.6231,3.4818 8.1901,5.42796 l -3.0637,4.03676 c -3.6186,-2.74185 -7.369,-5.06559 -12.2927,-7.64526 -24.882,7.82518 -42.8028,29.77016 -45.6486,55.54157 5.2176,-1.0567 10.2275,-1.63193 15.7897,-1.76877 l 0.1242,5.06559 c -5.8283,0.14444 -10.8356,0.76275 -16.3092,1.96643 -0.023,0.67153 -0.068,1.35065 -0.068,2.01458 0,21.93991 10.8534,42.15666 28.7033,54.34803 -3.1752,-9.45459 -4.7564,-18.38969 -4.7564,-27.117 0,-4.9769 0.8565,-9.06434 1.7611,-13.38998 0.2104,-1.00096 0.4232,-2.01965 0.631,-3.07636 l 4.9744,0.98069 c -0.2129,1.07444 -0.4308,2.11594 -0.6437,3.13717 -0.8869,4.23695 -1.6547,7.89613 -1.6547,12.34848 0,9.90312 2.1742,20.14326 6.5987,31.262731 9.4242,4.89327 19.601,7.39186 30.2719,7.39186 6.9839,0 13.8005,-1.11499 20.3029,-3.25881 2.5518,-5.035181 4.4447,-9.786551 6.026,-15.242381 l 4.8679,1.41147 c -1.1555,3.97848 -2.4808,7.59458 -4.0595,11.203091 4.0899,-1.83973 7.9594,-4.115321 11.5908,-6.771021 -0.8743,-2.14381 -1.8119,-4.27496 -2.8483,-6.35036 l 4.5334,-2.26798 c 0.8819,1.76371 1.6902,3.56796 2.4631,5.38235 14.6596,-12.55121 23.0093,-30.58107 23.0093,-49.99198 z m 5.0681,0 c 0,22.11476 -10.0501,42.56971 -27.568,56.12694 -4.3383,3.370301 -9.0441,6.167911 -14.0185,8.420691 -2.1108,0.95788 -4.2597,1.8448 -6.4694,2.58981 -7.2981,2.53153 -15.0093,3.8163 -22.8978,3.8163 -11.6567,0 -23.2323,-2.90404 -33.48,-8.39788 -23.1132,-12.366231 -37.4738,-36.335921 -37.4738,-62.555861 0,-1.73837 0.046,-3.06115 0.1496,-4.2851 1.7257,-29.60798 22.0387,-55.23495 50.5342,-63.71393 6.4898,-1.95883 13.314,-2.95471 20.27,-2.95471 12.1838,0 24.1724,3.13717 34.6761,9.06941 22.3732,12.53347 36.2776,36.24975 36.2776,61.88433 z m -77.7602,-36.83766 -3.3298,-3.81884 c -5.6813,4.95663 -10.1007,10.21988 -15.2626,18.16923 l 4.2521,2.75959 c 4.8857,-7.5287 9.0416,-12.48532 14.3403,-17.10998 z m -7.701,32.85158 -1.6472,4.79191 c 11.639,3.99622 21.793,10.37192 31.952,20.0647 l 3.4996,-3.66678 c -10.709,-10.21481 -21.4509,-16.94781 -33.8044,-21.18983 z m 33.8829,-29.79804 c 9.5078,14.4999 14.8623,30.41635 15.9114,47.31094 l -5.058,0.31423 c -0.9959,-16.00514 -6.0716,-31.09295 -15.0878,-44.8453 z"
       id="Amazon-CloudFront_Icon_64_Squid"
       fill="#ffffff"
       style="fill-rule:evenodd;stroke:none;stroke-width:2.53406;stroke-opacity:1" />
  </g>
  <g
     id="g33748"
     transform="matrix(1.2397066,0,0,1.240068,-402.92182,766.89917)">
    <g
       id="Icon-Architecture-BG/64/Networking-Content-Delivery-8"
       fill="#8c4fff"
       transform="matrix(2.4765348,0,0,2.4765348,2600.3367,-254.66796)"
       style="fill-rule:evenodd;stroke:#ffffff;stroke-width:2.01895;stroke-miterlimit:4;stroke-dasharray:none;stroke-opacity:1">
      <rect
         id="Rectangle-3"
         x="0"
         y="0"
         width="80"
         height="80"
         style="stroke:#ffffff;stroke-width:2.01895;stroke-miterlimit:4;stroke-dasharray:none;stroke-opacity:1" />
    </g>
    <path
       d="m 2720.9241,-153.92374 c 1.8302,1.69213 2.7465,3.95903 2.7465,6.80566 0,3.09686 -1.1144,5.56939 -3.3408,7.41759 -2.2289,1.85068 -5.223,2.77479 -8.98,2.77479 -2.9693,0 -5.909,-0.63424 -8.8164,-1.89776 v -3.79303 c 3.4448,1.13965 6.382,1.70699 8.8164,1.70699 2.4023,0 4.2498,-0.53762 5.545,-1.61037 1.2952,-1.07523 1.9416,-2.60879 1.9416,-4.59821 0,-3.82524 -2.4146,-5.73786 -7.2513,-5.73786 -1.5156,0 -3.0164,0.0793 -4.5023,0.23537 v -3.12659 l 9.9556,-10.85882 h -14.0295 v -3.88717 h 19.2897 v 3.74595 l -9.765,10.33608 c 0.161,-0.0322 0.3146,-0.0471 0.4755,-0.0471 h 0.473 c 3.1304,0 5.6094,0.84482 7.442,2.53446 m -27.5341,-0.82747 c 1.9243,1.80113 2.8877,4.28109 2.8877,7.43988 0,3.09934 -1.1194,5.60408 -3.3657,7.5167 -2.2437,1.91262 -5.1957,2.86893 -8.861,2.86893 -3.2195,0 -6.2384,-0.63424 -9.0517,-1.89776 v -3.79303 c 3.5067,1.13965 6.5083,1.70699 9.0047,1.70699 2.4022,0 4.2423,-0.54257 5.5201,-1.63514 1.2804,-1.0901 1.9218,-2.66082 1.9218,-4.71714 0,-2.2446 -0.6018,-3.87231 -1.8029,-4.88312 -1.2011,-1.01081 -3.16,-1.5187 -5.8768,-1.5187 -1.9589,0 -4.4058,0.16102 -7.3454,0.47568 v -3.12907 l 0.9015,-14.17617 h 17.2986 v 3.88717 h -13.3188 l -0.6167,9.62504 c 1.7385,-0.31464 3.3012,-0.4732 4.6906,-0.4732 3.4126,0 6.0848,0.89932 8.014,2.70294 m 35.62,34.75169 c -12.0211,2.16037 -22.5488,7.05588 -29.6119,11.04463 -7.0656,-3.98875 -17.5933,-8.88426 -29.6119,-11.04463 -3.383,-0.60698 -20.2432,-4.12749 -20.2432,-13.87392 0,-4.51646 1.6171,-7.51174 4.7227,-12.86063 3.7099,-6.39687 8.3261,-14.35951 8.3261,-25.82284 0,-8.19304 -2.1471,-16.04915 -6.387,-23.38003 0.4978,-0.61442 1.0055,-1.23627 1.5157,-1.86307 6.2805,3.13897 12.8185,4.72952 19.4656,4.72952 8.123,0 15.5873,-2.13312 22.212,-6.34237 6.6222,4.20925 14.0865,6.34237 22.2096,6.34237 6.647,0 13.1875,-1.59055 19.468,-4.72952 0.5077,0.6268 1.0154,1.24865 1.5132,1.86307 -4.2399,7.33088 -6.387,15.18699 -6.387,23.38003 0,11.46333 4.6162,19.42597 8.3335,25.83275 3.0982,5.33898 4.7153,8.33426 4.7153,12.85072 0,9.74643 -16.8602,13.26694 -20.2407,13.87392 m 12.1449,-52.55739 c 0,-7.82142 2.2066,-15.31829 6.553,-22.28251 0.5646,-0.89933 0.4928,-2.05631 -0.1808,-2.87883 -1.2581,-1.541 -2.5781,-3.16376 -3.8808,-4.7766 -0.7553,-0.93401 -2.0679,-1.19167 -3.1229,-0.61194 -6.0997,3.37186 -12.4619,5.08133 -18.9157,5.08133 -7.7863,0 -14.5893,-2.09348 -20.8005,-6.39687 -0.8469,-0.58717 -1.9738,-0.58717 -2.8207,0 -6.2112,4.30339 -13.0142,6.39687 -20.8004,6.39687 -6.4539,0 -12.8161,-1.70947 -18.9158,-5.08133 -1.0525,-0.57973 -2.3676,-0.32207 -3.1229,0.61194 -1.3027,1.61284 -2.6227,3.2356 -3.8808,4.7766 -0.6711,0.82252 -0.7454,1.9795 -0.1807,2.87883 4.3487,6.96422 6.5529,14.46109 6.5529,22.28251 0,10.13044 -4.2473,17.45141 -7.66,23.34288 -3.3433,5.75272 -5.3889,9.573 -5.3889,15.34059 0,13.34621 18.6136,17.72889 24.3196,18.75209 12.0359,2.16285 22.5463,7.26399 29.2429,11.16107 0.3839,0.22547 0.8148,0.33694 1.2457,0.33694 0.4284,0 0.8593,-0.11149 1.2457,-0.33694 6.6965,-3.89708 17.2045,-8.99822 29.2404,-11.16107 5.706,-1.0232 24.3196,-5.40588 24.3196,-18.75209 0,-5.76759 -2.0456,-9.58787 -5.3889,-15.34803 -3.4127,-5.88403 -7.66,-13.205 -7.66,-23.33544 m -9.5767,66.86983 c -15.1836,2.73019 -27.913,10.89598 -32.1801,13.886306 -4.2696,-2.990326 -16.9989,-11.156116 -32.1826,-13.886306 -29.8868,-5.36871 -32.2073,-22.93161 -32.2073,-28.18636 0,-8.64395 3.3953,-14.4933 6.6792,-20.15435 3.1303,-5.39349 6.3672,-10.97278 6.3672,-18.52912 0,-11.93652 -6.8922,-20.36741 -10.2925,-23.79873 3.5761,-4.35046 12.6105,-15.36537 17.0658,-21.1057 6.751,6.37209 14.5992,9.84801 22.3582,9.84801 8.6133,0 15.7359,-3.50565 22.212,-10.98518 6.4737,7.47953 13.5962,10.98518 22.2096,10.98518 7.7589,0 15.6071,-3.47592 22.3606,-9.84801 4.4553,5.74033 13.4872,16.75524 17.0633,21.1057 -3.4003,3.43132 -10.2925,11.86221 -10.2925,23.79873 0,7.55634 3.2393,13.13563 6.3672,18.52912 3.2864,5.66105 6.6817,11.5104 6.6817,20.15435 0,5.25475 -2.323,22.81765 -32.2098,28.18636 m 29.8125,-50.82563 c -3.0585,-5.27209 -5.6985,-9.82323 -5.6985,-16.0442 0,-13.09599 10.1934,-21.56651 10.2925,-21.64579 0.5126,-0.41622 0.8395,-1.02073 0.9089,-1.67974 0.064,-0.65901 -0.1338,-1.31554 -0.5548,-1.82591 -0.1659,-0.19819 -16.3996,-19.87934 -20.1193,-24.97801 -0.4359,-0.59707 -1.112,-0.9687 -1.85,-1.01329 -0.7405,-0.0545 -1.4537,0.24032 -1.959,0.78041 -6.2408,6.67435 -13.6258,10.35093 -20.8028,10.35093 -7.9349,0 -14.1757,-3.53537 -20.2432,-11.46332 -0.9386,-1.22388 -2.9942,-1.22388 -3.9328,0 -6.07,7.92795 -12.3108,11.46332 -20.2456,11.46332 -7.177,0 -14.5621,-3.67658 -20.8029,-10.35093 -0.5053,-0.54009 -1.2234,-0.8473 -1.959,-0.78041 -0.7355,0.0446 -1.4141,0.41622 -1.85,1.01329 -3.7197,5.09867 -19.9534,24.77981 -20.1193,24.97801 -0.4186,0.51037 -0.6167,1.1669 -0.5498,1.82343 0.064,0.65654 0.3888,1.26104 0.899,1.67726 0.104,0.0842 10.2974,8.55476 10.2974,21.65075 0,6.22097 -2.64,10.77211 -5.6985,16.0442 -3.4449,5.93606 -7.3479,12.66243 -7.3479,22.63927 0,16.62145 13.564,28.98163 36.2862,33.06453 17.1054,3.074557 31.4074,13.923468 31.5486,14.034955 0.4433,0.339414 0.9757,0.510361 1.5082,0.510361 0.53,0 1.0624,-0.170955 1.5082,-0.51284 0.1436,-0.109017 14.3961,-10.950487 31.5461,-14.032476 22.7222,-4.0829 36.2887,-16.44308 36.2887,-33.06453 0,-9.97684 -3.9055,-16.70321 -7.3504,-22.63927"
       id="Amazon-Route-53-Icon_64_Squid"
       fill="#ffffff"
       style="fill-rule:evenodd;stroke:none;stroke-width:2.47653" />
  </g>
  <g
     id="g33804"
     transform="matrix(1.2748605,0,0,1.2274117,-151.34902,-20.158196)">
    <g
       id="Icon-Architecture-BG/64/Storage"
       fill="#7aa116"
       transform="matrix(2.4088455,0,0,2.5012187,2902.7377,67.099905)"
       style="fill-rule:evenodd;stroke:#ffffff;stroke-width:2.03699;stroke-miterlimit:4;stroke-dasharray:none;stroke-opacity:1">
      <rect
         id="Rectangle-8"
         x="0"
         y="0"
         width="80"
         height="80"
         style="stroke:#ffffff;stroke-width:2.03699;stroke-miterlimit:4;stroke-dasharray:none;stroke-opacity:1" />
    </g>
    <g
       id="Icon-Service/64/Amazon-Simple-Storage-Service_64"
       transform="matrix(2.4088455,0,0,2.5012187,2934.0524,97.113529)"
       fill="#ffffff"
       style="fill-rule:evenodd;stroke:none;stroke-width:1">
      <path
         d="m 47.836,30.893 0.384,-2.704 c 3.541,2.121 3.587,2.997 3.586013,3.021 C 51.8,31.215 51.196,31.719 47.836,30.893 Z m -1.943,-0.54 c -6.12,-1.852 -14.643,-5.762 -18.092,-7.392 0,-0.014 0.004,-0.027 0.004,-0.041 0,-1.325 -1.078,-2.403 -2.404,-2.403 -1.324,0 -2.402,1.078 -2.402,2.403 0,1.325 1.078,2.403 2.402,2.403 0.582,0 1.11,-0.217 1.527,-0.562 4.058,1.921 12.515,5.774 18.68,7.594 L 43.17,49.561 c -0.007,0.047 -0.01,0.094 -0.01,0.141 C 43.16,51.217 36.453,54 25.494,54 14.419,54 7.641,51.217 7.641,49.702 7.641,49.656 7.638,49.611 7.632,49.566 L 2.538,12.359 C 6.947,15.394 16.43,17 25.5,17 34.556,17 44.023,15.4 48.441,12.374 Z M 2,8.478 C 2.072,7.162 9.634,2 25.5,2 41.364,2 48.927,7.161 49,8.478 V 8.927 C 48.13,11.878 38.33,15 25.5,15 12.648,15 2.843,11.868 2,8.913 Z M 51,8.5 C 51,5.035 41.066,0 25.5,0 9.934,0 0,5.035 0,8.5 L 0.094,9.254 5.642,49.778 C 5.775,54.31 17.861,56 25.494,56 c 9.472,0 19.535,-2.178 19.665,-6.219 l 2.396,-16.897 c 1.333,0.319 2.43,0.482 3.311,0.482 1.183,0 1.983,-0.289 2.468,-0.867 0.398,-0.474 0.55,-1.048 0.436,-1.659 -0.259,-1.384 -1.902,-2.876 -5.248,-4.785 L 50.898,9.293 Z"
         id="Amazon-Simple-Storage-Service-Icon_64_Squid" />
    </g>
  </g>
  <g
     id="g33846"
     transform="matrix(1.2122487,0,0,1.2122487,1617.2298,937.33098)">
    <g
       id="Icon-Architecture-BG/64/Compute"
       fill="#ed7100"
       transform="matrix(2.5349454,0,0,2.5344,1593.0629,-404.40917)"
       style="fill-rule:evenodd;stroke:#ffffff;stroke-width:1.94785;stroke-miterlimit:4;stroke-dasharray:none;stroke-opacity:1">
      <rect
         id="Rectangle-2"
         x="0"
         y="0"
         width="80"
         height="80"
         style="stroke:#ffffff;stroke-width:1.94785;stroke-miterlimit:4;stroke-dasharray:none;stroke-opacity:1" />
    </g>
    <path
       d="m 1664.0603,-237.13878 h -31.476 l 34.8122,-72.7474 15.7734,32.46566 z m 5.6078,-79.69927 c -0.427,-0.87437 -1.3161,-1.4294 -2.2867,-1.4294 v 0 c -0.9783,0.003 -1.8677,0.56264 -2.2869,1.44207 l -38.8217,81.12868 c -0.3759,0.78567 -0.3227,1.70819 0.1451,2.44569 0.4624,0.73499 1.2755,1.18104 2.1468,1.18104 h 37.1118 c 0.9832,0 1.8751,-0.56517 2.2969,-1.44969 l 20.319,-42.83135 c 0.3278,-0.69442 0.3252,-1.49784 -0.025,-2.18718 z m 88.1543,79.69927 h -31.2727 l -50.1713,-105.00017 c -0.4193,-0.882 -1.3137,-1.44462 -2.2944,-1.44462 h -20.4613 l 0.025,-25.34399 h 40.1047 l 49.9403,104.99765 c 0.419,0.88198 1.3135,1.44713 2.2944,1.44713 h 11.8376 z m 2.541,-30.41279 h -12.7704 l -49.94,-104.99766 c -0.4194,-0.88196 -1.3138,-1.44715 -2.297,-1.44715 h -44.2488 c -1.4001,0 -2.5383,1.13289 -2.5407,2.53189 l -0.029,30.41279 c 0,0.67413 0.2645,1.31788 0.7444,1.79435 0.4751,0.47648 1.1205,0.74257 1.7964,0.74257 h 21.4014 l 50.1742,105.00019 c 0.4218,0.88197 1.3111,1.44462 2.2919,1.44462 h 35.4168 c 1.4051,0 2.5408,-1.13542 2.5408,-2.5344 v -30.4128 c 0,-1.39898 -1.1357,-2.5344 -2.5408,-2.5344 z"
       id="AWS-Lambda_Icon_64_Squid"
       fill="#ffffff"
       style="fill-rule:evenodd;stroke:none;stroke-width:2.53468" />
  </g>
  <g
     id="g33912"
     transform="matrix(1.2748605,0,0,1.2274117,1572.2548,725.60988)">
    <g
       id="Icon-Architecture-BG/64/Security-Identity-Compliance"
       fill="#dd344c"
       transform="matrix(2.4088455,0,0,2.5012187,1270.4955,-541.92276)"
       style="fill-rule:evenodd;stroke:#ffffff;stroke-width:2.03699;stroke-miterlimit:4;stroke-dasharray:none;stroke-opacity:1">
      <rect
         id="Rectangle-6"
         x="0"
         y="0"
         width="80"
         height="80"
         style="stroke:#ffffff;stroke-width:2.03699;stroke-miterlimit:4;stroke-dasharray:none;stroke-opacity:1" />
    </g>
    <path
       d="m 1356.4769,-443.67239 c 0.6022,0.60279 0.8575,1.48322 0.6817,2.33113 l -2.4691,11.77824 10.9,-6.93838 c 0.7733,-0.49524 1.7464,-0.49524 2.5221,0.002 l 10.8205,6.92088 -2.3968,-11.79825 c -0.1686,-0.83791 0.084,-1.70583 0.6721,-2.30363 l 9.7293,-9.88981 -12.685,-1.90093 c -0.7901,-0.12006 -1.4694,-0.63531 -1.8211,-1.37817 l -5.6029,-11.91081 -5.7355,11.94082 c -0.3493,0.73286 -1.0262,1.24061 -1.8066,1.35816 l -12.6489,1.91844 z m -7.6963,18.77415 3.3844,-16.14537 -12.4007,-12.43856 c -0.6624,-0.66282 -0.9009,-1.65581 -0.6215,-2.56625 0.2818,-0.90794 1.0358,-1.57077 1.9439,-1.70583 l 16.2549,-2.46871 7.3518,-15.30495 c 0.4071,-0.85042 1.178,-1.4357 2.1656,-1.38568 0.9153,0.005 1.7512,0.55027 2.1535,1.40319 l 7.188,15.27744 16.2452,2.43869 c 0.9082,0.13506 1.6597,0.79288 1.944,1.69832 0.2842,0.90545 0.053,1.89843 -0.6046,2.56375 l -12.2635,12.46608 3.2833,16.15787 c 0.1975,0.98048 -0.1831,1.98847 -0.9732,2.56375 -0.7853,0.57528 -1.8259,0.6078 -2.6473,0.085 l -14.3375,-9.17447 -14.453,9.19948 c -0.3855,0.24762 -0.8239,0.37018 -1.2599,0.37018 -0.489,0 -0.978,-0.15507 -1.3947,-0.46272 -0.7853,-0.58028 -1.1635,-1.59328 -0.9587,-2.57125 z m -44.5612,-64.44641 h 125.2599 v -12.55861 h -125.2599 z m 130.0776,-15.05983 v 125.06093 c 0,1.38067 -1.0791,2.50122 -2.4088,2.50122 h -14.4531 v -5.00244 h 12.0442 v -102.49494 h -125.2599 v 102.49494 h 91.5361 v 5.00244 h -93.945 c -1.3321,0 -2.4088,-1.12055 -2.4088,-2.50122 v -125.06093 c 0,-1.38068 1.0767,-2.50122 2.4088,-2.50122 h 130.0777 c 1.3297,0 2.4088,1.12054 2.4088,2.50122 z m -105.9892,110.05362 h 14.4531 v -5.00244 h -14.4531 z m 24.0885,0 h 33.7238 v -5.00244 h -33.7238 z m -24.0885,-12.50609 h 14.4531 v -5.00244 h -14.4531 z m 24.0885,0 h 52.9946 v -5.00244 h -52.9946 z"
       id="AWS-Certificate-Manager_Icon_64_Squid"
       fill="#ffffff"
       style="fill-rule:evenodd;stroke:none;stroke-width:2.4546" />
  </g>
  <g
     id="g33946"
     transform="matrix(1.2748605,0,0,1.2274117,1174.4747,955.48522)">
    <g
       id="Icon-Architecture-BG/64/Security-Identity-Compliance-1"
       fill="#dd344c"
       transform="matrix(2.4088455,0,0,2.5012187,1583.4443,-411.52747)"
       style="fill-rule:evenodd;stroke:#ffffff;stroke-width:2.03699;stroke-miterlimit:4;stroke-dasharray:none;stroke-opacity:1">
      <rect
         id="Rectangle-4"
         x="0"
         y="0"
         width="80"
         height="80"
         style="stroke:#ffffff;stroke-width:2.03699;stroke-miterlimit:4;stroke-dasharray:none;stroke-opacity:1" />
    </g>
    <path
       d="m 1676.8111,-303.07462 c 0,1.71083 1.3418,3.10151 2.987,3.10151 1.6477,0 2.987,-1.39068 2.987,-3.10151 0,-1.71084 -1.3393,-3.10151 -2.987,-3.10151 -1.6452,0 -2.987,1.39067 -2.987,3.10151 z m -4.8176,0 c 0,-4.46968 3.5,-8.10395 7.8046,-8.10395 4.3046,0 7.8047,3.63427 7.8047,8.10395 0,3.59175 -2.274,6.60822 -5.3958,7.66873 v 6.43814 h -4.8177 v -6.43814 c -3.1219,-1.06051 -5.3958,-4.07698 -5.3958,-7.66873 z m 29.4842,-13.40654 h -43.3592 v 32.51585 h 43.3592 v -7.50366 h -7.2265 v -5.00244 h 7.2265 v -7.50365 h -7.2265 v -5.00244 h 7.2265 z m -36.1327,-5.00243 h 28.9038 v -12.5061 c 0,-6.54318 -6.8821,-12.50109 -14.4435,-12.50609 v 0 c -3.6831,0 -7.4023,1.4357 -10.2086,3.93942 -2.6979,2.40617 -4.2468,5.53019 -4.2468,8.56917 z m 33.7239,-12.5036 v 12.5036 h 4.8201 c 1.3321,0 2.4088,1.12054 2.4088,2.50122 v 37.51828 c 0,1.38067 -1.0767,2.50122 -2.4088,2.50122 h -48.1769 c -1.3321,0 -2.4089,-1.12055 -2.4089,-2.50122 v -37.51828 c 0,-1.38068 1.0768,-2.50122 2.4089,-2.50122 h 4.8176 v -12.5061 c 0,-4.49719 2.1608,-9.00188 5.9234,-12.36102 3.6687,-3.27159 8.5321,-5.14751 13.3498,-5.14751 v 0 c 10.2641,0.005 19.2636,8.18649 19.2611,17.51103 z m -69.3579,60.14931 3.9047,-2.93143 c -6.5882,-9.4546 -10.2303,-20.54751 -10.676,-32.20819 h 6.2727 v -5.00244 h -6.2655 c 0.4794,-11.59064 4.1168,-22.61852 10.6688,-32.0206 l -3.9047,-2.93393 c -7.1495,10.2625 -11.1,22.30337 -11.5817,34.95453 h -5.7789 v 5.00244 h 5.7716 c 0.4481,12.7212 4.4034,24.8271 11.589,35.13962 z m 83.4207,10.40257 c -9.0789,6.82333 -19.7284,10.60017 -30.9247,11.0829 v -6.60072 h -4.8177 v 6.60072 c -11.1963,-0.48023 -21.8483,-4.25707 -30.932,-11.0829 l -2.8208,4.05198 c 9.9052,7.44612 21.5351,11.54812 33.7528,12.03336 v 5.90538 h 4.8177 v -5.90538 c 12.2176,-0.48524 23.8427,-4.58724 33.7479,-12.03336 z m -66.6744,-95.90173 c 9.0837,-6.82332 19.7357,-10.60016 30.932,-11.0804 v 6.41313 h 4.8177 v -6.41313 c 11.1963,0.48024 21.8458,4.25708 30.9247,11.0804 l 2.8232,-4.05197 c -9.9052,-7.44363 -21.5303,-11.54563 -33.7479,-12.03086 v -6.09297 h -4.8177 v 6.09297 c -12.2177,0.48273 -23.8476,4.58473 -33.7528,12.03086 z m 95.0048,45.3571 c -0.4817,-12.65116 -4.4322,-24.69203 -11.5841,-34.95453 l -3.9047,2.93393 c 6.5544,9.40208 10.1918,20.42996 10.6712,32.0206 h -6.2606 v 5.00244 h 6.2678 c -0.4481,11.66068 -4.0878,22.75359 -10.6784,32.20819 l 3.9047,2.93143 c 7.188,-10.31252 11.1409,-22.41842 11.5914,-35.13962 h 5.7764 v -5.00244 z m -22.1926,-34.85698 18.8853,-19.60956 -3.4061,-3.53672 -18.8854,19.60956 z m -78.9475,74.90149 -18.8854,19.60956 3.4061,3.53672 18.8854,-19.60955 z m 12.1743,-69.42632 -35.7497,-37.11809 -3.4061,3.53672 35.7496,37.11809 z m 61.4906,63.84861 32.2616,33.49882 -3.4061,3.53672 -32.2617,-33.49882 z"
       id="AWS-Secrets-Manager_Icon_64_Squid"
       fill="#ffffff"
       style="fill-rule:evenodd;stroke:none;stroke-width:2.4546" />
  </g>
  <style
     type="text/css"
     id="style35205">
	.st0{fill:#252F3E;}
	.st1{fill-rule:evenodd;clip-rule:evenodd;fill:#FF9900;}
</style>
  <text
     xml:space="preserve"
     id="text4644"
     style="font-style:normal;font-weight:normal;font-size:170.656px;line-height:1.25;font-family:sans-serif;white-space:pre;shape-inside:url(#rect4646);fill:#ffffff;fill-opacity:1;stroke:none"
     transform="matrix(1.8388295,0,0,1.8388295,975.43507,955.68017)"><tspan
       x="432.60547"
       y="-252.3659"
       id="tspan38424"><tspan
         style="-inkscape-font-specification:sans-serif"
         id="tspan38422">🤝</tspan></tspan></text>
</svg>
